PathFileType	4	(X/Y/Z)	/Users/itak/Documents/Research/Walk-IL/dataset/trc/00521_00183.trc
DataRate	CameraRate	NumFrames	NumMarkers	Units	OrigDataRate	OrigDataStartFrame	OrigNumFrames
100.000000	100.000000	4	53	mm	100.000000	372	497
Frame#	Time	RPSI			LPSI			L3			STRN			T10			C7			CLAV			RBAK			LBAK			LSHO			LUPA			LAEL			LAOL			LWTS			LWPS			LFRA			LIFD			LHPS			LHTS			RSHO			RUPA			RAEL			RAOL			RWTS			RWPS			RFRA			RIFD			RHTS			RHPS			RBHD			LFHD			RFHD			LBHD			LHIP			RHIP			RASI			LASI			LKNE			LTHI			LANK			LTIP			LTOE			LMT1			LMT5			LHEE			RKNE			RTHI			RANK			RTIP			RTOE			RMT1			RMT5			RHEE			
		X1	Y1	Z1	X2	Y2	Z2	X3	Y3	Z3	X4	Y4	Z4	X5	Y5	Z5	X6	Y6	Z6	X7	Y7	Z7	X8	Y8	Z8	X9	Y9	Z9	X10	Y10	Z10	X11	Y11	Z11	X12	Y12	Z12	X13	Y13	Z13	X14	Y14	Z14	X15	Y15	Z15	X16	Y16	Z16	X17	Y17	Z17	X18	Y18	Z18	X19	Y19	Z19	X20	Y20	Z20	X21	Y21	Z21	X22	Y22	Z22	X23	Y23	Z23	X24	Y24	Z24	X25	Y25	Z25	X26	Y26	Z26	X27	Y27	Z27	X28	Y28	Z28	X29	Y29	Z29	X30	Y30	Z30	X31	Y31	Z31	X32	Y32	Z32	X33	Y33	Z33	X34	Y34	Z34	X35	Y35	Z35	X36	Y36	Z36	X37	Y37	Z37	X38	Y38	Z38	X39	Y39	Z39	X40	Y40	Z40	X41	Y41	Z41	X42	Y42	Z42	X43	Y43	Z43	X44	Y44	Z44	X45	Y45	Z45	X46	Y46	Z46	X47	Y47	Z47	X48	Y48	Z48	X49	Y49	Z49	X50	Y50	Z50	X51	Y51	Z51	X52	Y52	Z52	X53	Y53	Z53	

373	3.72	392.5971069335938	947.014892578125	655.1682739257812	516.0095825195312	950.0617065429688	662.3424682617188	449.3619689941406	1018.544189453125	654.4810180664062	450.0459899902344	1197.17041015625	858.0093994140625	437.5709228515625	1120.351806640625	634.8671264648438	426.2269287109375	1353.399658203125	660.5978393554688	443.0187377929688	1289.604370117188	816.8634643554688	342.0303955078125	1223.727905273438	627.9411010742188	511.5720520019531	1299.41259765625	631.6591796875	590.6670532226562	1358.489013671875	713.33984375	656.5242919921875	1235.602661132812	701.4690551757812	699.5614013671875	1029.24853515625	720.6527099609375	619.3814086914062	1010.792602539062	663.9169311523438	690.228759765625	845.0919799804688	824.4779663085938	718.6748657226562	805.749755859375	743.3262329101562	711.2610473632812	945.6159057617188	743.0733032226562	692.3019409179688	688.7035522460938	838.525390625	722.6788940429688	754.4782104492188	771.751708984375	715.9159545898438	769.9113159179688	834.7613525390625	282.4766845703125	1344.692504882812	726.1304931640625	228.2325744628906	1274.908813476562	715.5180053710938	192.5478057861328	1008.638732910156	718.6405029296875	235.5738067626953	990.8363647460938	672.2413330078125	214.1944732666016	803.296142578125	818.0083618164062	179.1666564941406	780.846435546875	737.5149536132812	186.2980499267578	953.7617797851562	720.510009765625	211.1791687011719	644.0055541992188	814.188720703125	189.5986480712891	710.9375610351562	826.2366943359375	177.0544891357422	710.0623779296875	757.3441772460938	331.7443542480469	1505.697998046875	712.5818481445312	486.4403076171875	1585.220092773438	812.401123046875	360.9640197753906	1573.592895507812	829.1578369140625	487.9049987792969	1514.55615234375	677.5331420898438	621.0687866210938	886.7532348632812	770.2455444335938	260.2935791015625	850.2001342773438	757.5706787109375	321.4518737792969	903.472900390625	858.454833984375	563.4318237304688	929.0128173828125	864.4779663085938	579.2529296875	484.3201904296875	900.6923217773438	614.5765991210938	635.3374633789062	868.201416015625	583.0479736328125	46.38656997680664	854.4854125976562	584.6032104492188	329.7198791503906	899.219970703125	489.5973205566406	34.19367599487305	1042.53271484375	471.9895629882812	41.67488861083984	960.3582153320312	573.93505859375	39.54176712036133	963.8373413085938	527.1171264648438	42.50168609619141	801.7538452148438	298.2235107421875	467.5026550292969	799.2460327148438	267.6917419433594	724.544189453125	794.928955078125	288.7432556152344	185.6241149902344	468.2152709960938	301.3228149414062	348.6600341796875	728.8011474609375	328.0144653320312	37.84514236450195	592.5903930664062	368.1652526855469	86.11570739746094	551.79638671875	270.9173889160156	95.26221466064453	532.3461303710938	334.8893127441406	222.5912170410156	433.3548583984375	
374	3.73	394.4063110351562	948.2265014648438	660.1978149414062	517.7008666992188	951.2542114257812	667.919189453125	451.8328857421875	1019.892272949219	659.7163696289062	451.9000549316406	1198.068237304688	864.0074462890625	440.4485473632812	1121.8056640625	640.612060546875	429.2445678710938	1354.998413085938	666.7093505859375	445.1779174804688	1290.640502929688	823.0665893554688	345.1556091308594	1225.297973632812	633.4406127929688	514.581787109375	1300.886108398438	638.2554931640625	593.2855224609375	1359.820922851562	720.5740966796875	659.6226196289062	1237.071533203125	709.5728759765625	703.1726684570312	1030.939086914062	730.118896484375	623.9341430664062	1012.008605957031	672.1888427734375	692.8660888671875	846.9881591796875	834.146728515625	722.8750610351562	807.7061157226562	753.529052734375	714.8290405273438	947.4252319335938	752.9194946289062	695.6547241210938	690.619384765625	848.4603271484375	726.7559814453125	756.4991455078125	782.088134765625	718.8963012695312	771.9448852539062	844.9778442382812	285.0097045898438	1345.97802734375	731.669677734375	230.9185485839844	1276.2890625	720.34765625	194.9961395263672	1010.0625	721.7421875	238.5041809082031	992.5004272460938	675.5574340820312	215.6685485839844	804.2017211914062	820.1566772460938	181.17822265625	782.1530151367188	739.3543701171875	188.5551452636719	955.188232421875	723.2493896484375	212.9960174560547	644.8970947265625	815.4022827148438	191.1695404052734	711.7684936523438	827.6514282226562	179.2160339355469	711.2247924804688	758.6549072265625	334.2166137695312	1506.630737304688	718.0592041015625	488.5505676269531	1586.767578125	817.943359375	363.0523986816406	1575.121215820312	834.4191284179688	490.4607238769531	1515.460571289062	683.3943481445312	623.5734252929688	887.526123046875	775.8106079101562	262.3763427734375	851.61865234375	762.3237915039062	323.4824523925781	904.7894287109375	863.2984008789062	565.4832153320312	929.7348022460938	869.8515625	579.973876953125	484.0953979492188	902.9436645507812	615.5375366210938	635.4691772460938	872.0838623046875	582.9957885742188	46.38638687133789	854.5043334960938	585.1044311523438	329.4197998046875	900.61865234375	489.4637145996094	34.1428337097168	1042.579956054688	472.020263671875	41.55207443237305	960.3467407226562	573.8399658203125	39.5085563659668	963.8621215820312	527.0772705078125	42.53909683227539	801.7586059570312	299.5882568359375	469.2832336425781	808.750244140625	269.340576171875	726.2530517578125	801.3238525390625	292.702392578125	186.6087493896484	478.7257690429688	302.7611083984375	350.51171875	738.7722778320312	325.8836669921875	39.86292266845703	607.1029663085938	367.8783874511719	86.64430999755859	566.1091918945312	271.638671875	98.17660522460938	544.3154907226562	340.5480346679688	221.6484375	443.9822998046875	
375	3.74	396.0996398925781	949.4163208007812	665.0076293945312	519.2886352539062	952.3930053710938	673.2592163085938	454.2461547851562	1021.202514648438	664.7686157226562	453.7291870117188	1198.912841796875	869.8448486328125	443.2479858398438	1123.208618164062	646.159912109375	432.1954345703125	1356.544677734375	672.68896484375	447.2877197265625	1291.628540039062	829.124755859375	348.1935424804688	1226.8203125	638.7579345703125	517.5410766601562	1302.313232421875	644.7427368164062	595.8397216796875	1361.1337890625	727.6698608398438	662.614501953125	1238.509643554688	717.5394287109375	706.6416625976562	1032.605224609375	739.5007934570312	628.351806640625	1013.201477050781	680.4494018554688	695.4212646484375	848.8861083984375	843.7724609375	726.9113159179688	809.6738891601562	763.6891479492188	718.2393798828125	949.2169799804688	762.6875	698.9749145507812	692.54443359375	858.3616333007812	730.721435546875	758.5413208007812	792.3729858398438	721.8107299804688	773.9949951171875	855.1369018554688	287.4830932617188	1347.187255859375	737.06640625	233.5647583007812	1277.591552734375	725.030517578125	197.3799591064453	1011.421569824219	724.7546997070312	241.3325500488281	994.0662231445312	678.7969970703125	217.0307312011719	805.1612548828125	822.3597412109375	183.1569671630859	783.397705078125	741.2615356445312	190.7931365966797	956.5494995117188	725.9306640625	214.6673889160156	645.8316040039062	816.87744140625	192.6258850097656	712.673095703125	829.2275390625	181.2789306640625	712.3751220703125	760.135498046875	336.5994873046875	1507.52734375	723.4539184570312	490.595947265625	1588.234375	823.4260864257812	365.08154296875	1576.56201171875	839.6220092773438	492.9423217773438	1516.354248046875	689.1716918945312	626.004150390625	888.247314453125	781.1964721679688	264.4011535644531	852.9852294921875	766.8745727539062	325.4430847167969	906.0590209960938	867.9224853515625	567.460693359375	930.405029296875	875.0458984375	580.725341796875	483.8493957519531	905.0490112304688	616.4580078125	635.5632934570312	875.81982421875	582.9576416015625	46.37272644042969	854.5260620117188	585.6807861328125	329.1335754394531	901.8613891601562	489.3382568359375	34.09321594238281	1042.62255859375	472.03271484375	41.46864318847656	960.3414306640625	573.760009765625	39.47088241577148	963.884521484375	527.049560546875	42.57686996459961	801.7628784179688	300.8269348144531	471.0751342773438	817.8313598632812	270.8767395019531	727.8057861328125	807.30810546875	296.3546447753906	186.4827880859375	489.8163452148438	304.0827026367188	352.2380981445312	748.515625	323.9816589355469	41.80995178222656	622.5118408203125	367.6260070800781	86.68384552001953	581.0576171875	272.400634765625	100.2621154785156	557.1561889648438	345.7991943359375	219.4771270751953	454.9829711914062	
376	3.75	397.7310485839844	950.5692138671875	669.5856323242188	520.8226318359375	953.478271484375	678.367919921875	456.6308898925781	1022.477478027344	669.66064453125	455.5212097167969	1199.707397460938	875.52978515625	445.9903869628906	1124.564086914062	651.5228881835938	435.0753173828125	1358.012817382812	678.5599975585938	449.3359069824219	1292.566528320312	835.038818359375	351.1651916503906	1228.298950195312	643.8953247070312	520.4818115234375	1303.69287109375	651.1282958984375	598.3345336914062	1362.42431640625	734.6455078125	665.4974365234375	1239.916259765625	725.365478515625	709.9542236328125	1034.24267578125	748.7570190429688	632.603759765625	1014.3720703125	688.6717529296875	697.896484375	850.7986450195312	853.3418579101562	730.75146484375	811.6403198242188	773.7894287109375	721.477294921875	950.9896850585938	772.3382568359375	702.2528076171875	694.4981079101562	868.2565307617188	734.54296875	760.6004028320312	802.6026611328125	724.65234375	776.0826416015625	865.2345581054688	289.9111633300781	1348.328491210938	742.3040161132812	236.1827850341797	1278.825073242188	729.5568237304688	199.721435546875	1012.725158691406	727.685791015625	244.0608062744141	995.5380859375	681.9783325195312	218.3012542724609	806.1543579101562	824.6105346679688	185.1431274414062	784.5883178710938	743.2061767578125	193.0286712646484	957.8558959960938	728.5689086914062	216.1659545898438	646.7972412109375	818.5872192382812	193.9557037353516	713.63232421875	830.9552001953125	183.2248840332031	713.518310546875	761.7762451171875	338.8877258300781	1508.380249023438	728.7698974609375	492.5686340332031	1589.622802734375	828.8439331054688	367.0423889160156	1577.917602539062	844.7603149414062	495.3446044921875	1517.225341796875	694.8701782226562	628.32275390625	888.9179077148438	786.4229736328125	266.3118591308594	854.310302734375	771.209716796875	327.2861938476562	907.2902221679688	872.32275390625	569.3259887695312	931.0245361328125	880.0808715820312	581.5505981445312	483.5977172851562	907.034423828125	617.390625	635.6273193359375	879.3792114257812	582.9467163085938	46.3382453918457	854.5529174804688	586.3441162109375	328.8681640625	902.9873657226562	489.23095703125	34.04881286621094	1042.658081054688	472.0406799316406	41.42325592041016	960.3421020507812	573.7079467773438	39.42079544067383	963.9074096679688	527.0421752929688	42.6185417175293	801.7692260742188	301.9645385742188	472.8652954101562	826.4571533203125	272.3004150390625	729.1858520507812	812.783935546875	299.5975646972656	185.2508392333984	501.4638061523438	305.277587890625	353.8226013183594	758.0391235351562	322.3453674316406	43.56550598144531	638.6647338867188	367.438232421875	86.25338745117188	596.5381469726562	273.1552734375	101.458366394043	570.7777709960938	350.49462890625	216.1751403808594	466.3745422363281	
